<svg xmlns="http://www.w3.org/2000/svg" width="371.441" height="117" viewBox="0 0 371.441 117"><g transform="translate(-354.343 -211)"><g transform="translate(354.343 211)" fill="none"><path d="M101.485,0l33.828,58.5L101.485,117H33.828L0,58.5,33.828,0Z" stroke="none"/><path d="M 45.36616516113281 20 L 23.10311889648438 58.5 L 45.36616516113281 97 L 89.94688415527344 97 L 112.2099304199219 58.5 L 89.94688415527344 20 L 45.36616516113281 20 M 33.82825469970703 0 L 101.4847946166992 0 L 135.3130645751953 58.5 L 101.4847946166992 117 L 33.82825469970703 117 L -1.52587890625e-05 58.5 L 33.82825469970703 0 Z" stroke="none" fill="#9333ea"/></g><path d="M37.056-67.2H7.968V0H23.52V-18.528H37.056c17.952,0,29.184-9.312,29.184-24.288C66.24-57.888,55.008-67.2,37.056-67.2Zm-.864,36H23.52V-54.528H36.192c9.5,0,14.3,4.32,14.3,11.712C50.5-35.52,45.7-31.2,36.192-31.2ZM123.264,0h18.144L111.936-37.248,139.776-67.2H122.5L92.736-35.808V-67.2H77.28V0H92.736V-16.992L101.76-26.4Zm68.064-14.976a24.689,24.689,0,0,1-12.1,2.88c-12.864,0-21.792-8.928-21.792-21.5,0-12.768,8.928-21.5,21.984-21.5A22.74,22.74,0,0,1,196.8-47.52l9.984-9.216c-6.528-7.584-16.32-11.616-28.128-11.616-21.408,0-36.96,14.5-36.96,34.752S157.248,1.152,178.368,1.152c9.6,0,19.776-2.976,27.168-8.544V-34.656H191.328Z" transform="translate(519 304)"/></g></svg>